<svg width="30" height="31" viewBox="0 0 30 31" fill="none" xmlns="http://www.w3.org/2000/svg">
<path d="M10.1 25.5C11.9484 25.5618 13.7904 25.2525 15.5172 24.5904C17.244 23.9282 18.8205 22.9266 20.1536 21.6448C21.4867 20.3629 22.5494 18.8269 23.2787 17.1273C24.0081 15.4278 24.3893 13.5994 24.4 11.75C25.2471 10.7018 25.876 9.49478 26.25 8.19999C26.2779 8.0977 26.2757 7.98951 26.2435 7.88846C26.2114 7.78741 26.1507 7.69781 26.0688 7.63045C25.9869 7.56309 25.8873 7.52083 25.7819 7.50878C25.6766 7.49672 25.57 7.51537 25.475 7.56249C25.0318 7.77581 24.5329 7.84472 24.0486 7.7595C23.5642 7.67429 23.1187 7.43925 22.775 7.08749C22.3362 6.60697 21.8054 6.21941 21.214 5.94778C20.6227 5.67615 19.9829 5.52598 19.3324 5.50616C18.682 5.48635 18.0342 5.59729 17.4274 5.83242C16.8206 6.06754 16.2672 6.42207 15.8 6.87499C15.1602 7.49457 14.6916 8.26911 14.4398 9.12334C14.1879 9.97757 14.1612 10.8824 14.3625 11.75C10.175 12 7.29999 10.0125 4.99999 7.28749C4.93089 7.20925 4.84051 7.15281 4.73987 7.12508C4.63923 7.09735 4.53269 7.09953 4.43327 7.13134C4.33385 7.16316 4.24584 7.22324 4.18 7.30424C4.11415 7.38524 4.07332 7.48367 4.06249 7.58749C3.62433 10.018 3.9404 12.5244 4.96826 14.7701C5.99612 17.0157 7.68655 18.8931 9.81249 20.15C8.38704 21.7848 6.38525 22.8058 4.22499 23C4.10926 23.0192 4.00242 23.0741 3.91943 23.157C3.83644 23.2399 3.78146 23.3467 3.76217 23.4624C3.74288 23.5782 3.76026 23.697 3.81187 23.8024C3.86348 23.9077 3.94674 23.9943 4.04999 24.05C5.92939 24.9892 7.99903 25.4852 10.1 25.5Z" fill="white"/>
</svg>
