<svg width="30" height="30" viewBox="0 0 30 30" fill="none" xmlns="http://www.w3.org/2000/svg">
<path d="M10.1001 25C11.9485 25.0618 13.7905 24.7525 15.5173 24.0904C17.2441 23.4282 18.8206 22.4266 20.1537 21.1448C21.4868 19.8629 22.5495 18.3269 23.2788 16.6273C24.0082 14.9278 24.3895 13.0994 24.4001 11.25C25.2472 10.2018 25.8762 8.99478 26.2501 7.69999C26.278 7.5977 26.2758 7.48951 26.2436 7.38846C26.2115 7.28741 26.1508 7.19781 26.0689 7.13045C25.987 7.06309 25.8874 7.02083 25.782 7.00878C25.6767 6.99672 25.5701 7.01537 25.4751 7.06249C25.032 7.27581 24.5331 7.34472 24.0487 7.2595C23.5643 7.17429 23.1189 6.93925 22.7751 6.58749C22.3363 6.10697 21.8055 5.71941 21.2142 5.44778C20.6228 5.17615 19.983 5.02598 19.3326 5.00616C18.6821 4.98635 18.0343 5.09729 17.4275 5.33242C16.8208 5.56754 16.2674 5.92207 15.8001 6.37499C15.1604 6.99457 14.6918 7.76911 14.4399 8.62334C14.188 9.47757 14.1614 10.3824 14.3626 11.25C10.1751 11.5 7.30011 9.51249 5.00011 6.78749C4.93102 6.70925 4.84063 6.65281 4.73999 6.62508C4.63935 6.59735 4.53282 6.59953 4.43339 6.63134C4.33397 6.66316 4.24596 6.72324 4.18012 6.80424C4.11428 6.88524 4.07345 6.98367 4.06261 7.08749C3.62445 9.51802 3.94052 12.0244 4.96839 14.2701C5.99625 16.5157 7.68667 18.3931 9.81261 19.65C8.38716 21.2848 6.38537 22.3058 4.22511 22.5C4.10938 22.5192 4.00254 22.5741 3.91955 22.657C3.83656 22.7399 3.78158 22.8467 3.76229 22.9624C3.74301 23.0782 3.76038 23.197 3.81199 23.3024C3.8636 23.4077 3.94686 23.4943 4.05011 23.55C5.92951 24.4892 7.99915 24.9852 10.1001 25Z" fill="white"/>
</svg>
