<svg width="30" height="31" viewBox="0 0 30 31" fill="none" xmlns="http://www.w3.org/2000/svg">
<path d="M15 1.75C11.3918 1.71334 7.91672 3.11076 5.33842 5.63516C2.76011 8.15955 1.28958 11.6044 1.25 15.2125C1.2639 18.064 2.18118 20.8377 3.87008 23.1352C5.55898 25.4327 7.93259 27.1359 10.65 28C11.3375 28.125 11.5875 27.7125 11.5875 27.35C11.5875 26.9875 11.5875 26.1875 11.5875 25.0625C7.7625 25.875 6.95 23.2625 6.95 23.2625C6.69537 22.4424 6.15404 21.7413 5.425 21.2875C4.175 20.4625 5.525 20.475 5.525 20.475C5.95706 20.5328 6.37044 20.6876 6.73414 20.9279C7.09783 21.1682 7.4024 21.4877 7.625 21.8625C8.01291 22.5352 8.64942 23.0286 9.39751 23.2367C10.1456 23.4447 10.9455 23.3508 11.625 22.975C11.6949 22.2905 12.0049 21.6528 12.5 21.175C9.45 20.8375 6.25 19.6875 6.25 14.525C6.22273 13.1784 6.7203 11.8739 7.6375 10.8875C7.21978 9.73134 7.26911 8.45789 7.775 7.3375C7.775 7.3375 8.9375 6.975 11.525 8.7125C13.7774 8.1123 16.1476 8.1123 18.4 8.7125C21.025 6.975 22.15 7.3375 22.15 7.3375C22.6559 8.45789 22.7052 9.73134 22.2875 10.8875C23.226 11.8558 23.7506 13.1515 23.75 14.5C23.75 19.675 20.525 20.8125 17.5 21.15C17.8312 21.4716 18.0871 21.8626 18.2492 22.2948C18.4113 22.7271 18.4756 23.1899 18.4375 23.65V27.3375C18.4375 27.3375 18.6875 28.125 19.375 27.9875C22.0847 27.118 24.4503 25.4145 26.134 23.1202C27.8177 20.8259 28.7333 18.0582 28.75 15.2125C28.7104 11.6044 27.2399 8.15955 24.6616 5.63516C22.0833 3.11076 18.6082 1.71334 15 1.75Z" fill="white"/>
</svg>
