<svg width="30" height="31" viewBox="0 0 30 31" fill="none" xmlns="http://www.w3.org/2000/svg">
<path d="M18.4501 14.4875C18.276 14.4868 18.1037 14.5224 17.9442 14.5922C17.7848 14.6619 17.6416 14.7642 17.5239 14.8924C17.4062 15.0207 17.3167 15.1721 17.2609 15.337C17.2051 15.5019 17.1844 15.6766 17.2001 15.85H19.7751C19.7917 15.6701 19.7692 15.4888 19.709 15.3185C19.6488 15.1482 19.5524 14.9929 19.4265 14.8634C19.3006 14.7339 19.1481 14.6333 18.9795 14.5684C18.811 14.5035 18.6303 14.4759 18.4501 14.4875Z" fill="white"/>
<path d="M11.8625 15.875H10.325V18.3H11.575C12.825 18.3 13.375 17.8875 13.375 17.05C13.375 16.2125 12.8 15.875 11.8625 15.875Z" fill="white"/>
<path d="M12.95 13.65C12.95 12.9875 12.5125 12.5875 11.7625 12.5875H10.325V14.7625H11.3875C12.5 14.7625 12.95 14.3625 12.95 13.65Z" fill="white"/>
<path d="M15.0001 2.99997C12.5278 2.99997 10.1111 3.73308 8.05544 5.1066C5.99982 6.48012 4.39767 8.43235 3.45157 10.7164C2.50548 13.0005 2.25794 15.5138 2.74025 17.9386C3.22257 20.3634 4.41308 22.5906 6.16123 24.3388C7.90939 26.087 10.1367 27.2775 12.5614 27.7598C14.9862 28.2421 17.4995 27.9946 19.7836 27.0485C22.0677 26.1024 24.0199 24.5002 25.3934 22.4446C26.767 20.389 27.5001 17.9722 27.5001 15.5C27.5001 13.8584 27.1767 12.233 26.5486 10.7164C25.9204 9.19986 24.9996 7.82187 23.8389 6.66113C22.6782 5.5004 21.3002 4.57966 19.7836 3.95148C18.267 3.32329 16.6416 2.99997 15.0001 2.99997ZM12.1251 19.5H8.75007V11.375H12.1251C13.5876 11.375 14.5501 12.1375 14.5501 13.375C14.5673 13.7907 14.4359 14.199 14.1793 14.5266C13.9227 14.8542 13.5578 15.0796 13.1501 15.1625C13.4085 15.1685 13.663 15.2271 13.8979 15.3348C14.1329 15.4426 14.3434 15.5971 14.5166 15.789C14.6898 15.9809 14.822 16.2061 14.9051 16.4509C14.9882 16.6957 15.0205 16.9548 15.0001 17.2125C15.0001 18.6625 13.7501 19.5 12.1251 19.5ZM16.5626 12H20.3126V12.625H16.5626V12ZM21.2501 16.8125H17.1251V16.9875C17.1036 17.1774 17.123 17.3698 17.1822 17.5515C17.2413 17.7333 17.3387 17.9003 17.4678 18.0413C17.5969 18.1823 17.7547 18.2939 17.9307 18.3687C18.1066 18.4435 18.2965 18.4798 18.4876 18.475C18.7559 18.5167 19.0302 18.4599 19.2599 18.3152C19.4897 18.1704 19.6593 17.9475 19.7376 17.6875H21.2501C21.1154 18.2875 20.7643 18.8168 20.2639 19.1743C19.7634 19.5317 19.1488 19.6922 18.5376 19.625C18.1469 19.6644 17.7523 19.6178 17.3816 19.4883C17.0109 19.3589 16.673 19.1498 16.3918 18.8757C16.1106 18.6017 15.8929 18.2693 15.7539 17.9021C15.615 17.5348 15.5582 17.1415 15.5876 16.75V16.2C15.561 15.8206 15.6168 15.4399 15.7512 15.0841C15.8856 14.7283 16.0953 14.4057 16.366 14.1386C16.6367 13.8714 16.962 13.666 17.3196 13.5363C17.6772 13.4067 18.0585 13.3559 18.4376 13.3875C18.8153 13.3633 19.1939 13.4203 19.5478 13.5546C19.9017 13.689 20.2227 13.8977 20.4892 14.1665C20.7557 14.4354 20.9615 14.7582 21.0927 15.1133C21.224 15.4684 21.2776 15.8474 21.2501 16.225V16.8125Z" fill="white"/>
</svg>
