<svg width="50" height="50" viewBox="0 0 50 50" fill="none" xmlns="http://www.w3.org/2000/svg">
<circle cx="25" cy="25" r="25" fill="#E72835"/>
<path d="M33.3332 30.2083C33.0591 30.2099 32.7873 30.1573 32.5334 30.0537C32.2796 29.95 32.0487 29.7972 31.8541 29.6041L24.9999 22.7083L18.1249 29.3333C17.7346 29.7213 17.2066 29.9391 16.6562 29.9391C16.1058 29.9391 15.5778 29.7213 15.1874 29.3333C14.9921 29.1396 14.8372 28.9092 14.7314 28.6553C14.6256 28.4015 14.5712 28.1292 14.5712 27.8541C14.5712 27.5791 14.6256 27.3068 14.7314 27.0529C14.8372 26.7991 14.9921 26.5686 15.1874 26.375L23.5207 18.3333C23.9102 17.9516 24.4338 17.7378 24.9791 17.7378C25.5244 17.7378 26.048 17.9516 26.4374 18.3333L34.7708 26.6666C34.966 26.8603 35.121 27.0907 35.2268 27.3446C35.3325 27.5985 35.387 27.8708 35.387 28.1458C35.387 28.4208 35.3325 28.6931 35.2268 28.947C35.121 29.2009 34.966 29.4313 34.7708 29.625C34.3845 29.9972 33.8696 30.2062 33.3332 30.2083Z" fill="white"/>
</svg>
