<svg width="50" height="50" viewBox="0 0 50 50" fill="none" xmlns="http://www.w3.org/2000/svg">
<circle cx="25" cy="25" r="25" fill="#1F1F38"/>
<path opacity="0.5" d="M17.0537 19C17.3279 18.9985 17.5997 19.051 17.8535 19.1547C18.1073 19.2584 18.3382 19.4111 18.5329 19.6042L25.387 26.5L32.262 19.875C32.6524 19.487 33.1804 19.2692 33.7308 19.2692C34.2812 19.2692 34.8092 19.487 35.1995 19.875C35.3948 20.0687 35.5498 20.2991 35.6556 20.553C35.7613 20.8069 35.8158 21.0792 35.8158 21.3542C35.8158 21.6292 35.7613 21.9015 35.6556 22.1554C35.5498 22.4093 35.3948 22.6397 35.1995 22.8334L26.8662 30.875C26.4768 31.2568 25.9532 31.4706 25.4079 31.4706C24.8626 31.4706 24.339 31.2568 23.9495 30.875L15.6162 22.5417C15.4209 22.348 15.266 22.1176 15.1602 21.8637C15.0544 21.6099 15 21.3376 15 21.0625C15 20.7875 15.0544 20.5152 15.1602 20.2613C15.266 20.0075 15.4209 19.7771 15.6162 19.5834C16.0024 19.2111 16.5173 19.0022 17.0537 19Z" fill="white"/>
</svg>
